<svg id="图层_1" data-name="图层 1" xmlns="http://www.w3.org/2000/svg" viewBox="0 0 2500 2500"><defs><style>.cls-1{fill:#0068ff;}.cls-2{fill:#001d99;}</style></defs><path class="cls-1" d="M1042.33,1686.58l680.15,680c86,86,200.49,133.43,322.13,133.43s236.11-47.38,322.07-133.43,133.25-200.32,133.25-322.14-47.28-236.22-133.18-322.11l-680.08-680C1560.53,916.1,1491.06,748.4,1491.06,570c0-89.22,17-175,50.42-255.52L314.38,1541.34c80.61-33.46,166.44-50.41,255.67-50.41C748.43,1490.93,916.12,1560.42,1042.33,1686.58Z"/><path class="cls-1" d="M454.93,0C204.08,0,0,204.06,0,454.92s204.08,455,454.93,455S910,705.78,910,454.92,705.84,0,454.93,0Z"/><path class="cls-2" d="M570.05,1541.47c-164.88,0-320,64.24-436.67,180.85C47.48,1808.21.13,1922.6.13,2044.43s47.35,236.24,133.25,322.14S333.88,2500,455.58,2500s236.11-47.38,322.21-133.43L1214.32,1930l-207.73-207.68C890,1605.71,735,1541.47,570.05,1541.47Z"/><path class="cls-2" d="M2044.61.23c-121.9,0-236.3,47.31-322.13,133.2C1605.86,250,1541.61,405,1541.61,570s64.25,320,180.8,436.56h.07l207.67,207.72,436.53-436.57c86-85.89,133.32-200.28,133.32-322.1s-47.35-236.25-133.32-322.18S2166.45.23,2044.61.23Z"/></svg>